<?xml version="1.0" encoding="iso-8859-1"?>
<!-- Uploaded to: SVG Repo, www.svgrepo.com, Generator: SVG Repo Mixer Tools -->
<svg fill="#000000" height="800px" width="800px" version="1.1" id="Layer_1" xmlns="http://www.w3.org/2000/svg" xmlns:xlink="http://www.w3.org/1999/xlink" 
	 viewBox="0 0 512 512" xml:space="preserve">
<g>
	<g>
		<path d="M396.284,154.894v70.156c0,2.904,1.649,5.556,4.255,6.84c2.604,1.283,5.711,0.976,8.015-0.792l22.607-17.364
			c4.418,9.046,11.943,18.347,14.888,21.829c1.449,1.714,3.578,2.701,5.822,2.701c2.244,0,4.374-0.988,5.822-2.701
			c2.945-3.482,10.47-12.784,14.889-21.829l22.607,17.364c1.358,1.042,2.995,1.578,4.645,1.578c1.148,0,2.302-0.259,3.369-0.785
			c2.606-1.284,4.255-3.935,4.255-6.84v-70.156c0-28.116-20.987-51.406-48.115-55.07C456.392,44.282,410.277,0,354.013,0
			c-58.162,0-105.481,47.319-105.481,105.481v23.216c-18.444-30.782-52.127-51.433-90.548-51.433
			c-56.264,0-102.379,44.282-105.328,99.825c-27.127,3.663-48.114,26.955-48.114,55.07v70.156c0,2.903,1.649,5.556,4.255,6.84
			c2.604,1.282,5.711,0.976,8.015-0.792l22.607-17.364c4.418,9.046,11.943,18.347,14.888,21.829
			c1.449,1.714,3.578,2.701,5.822,2.701c2.244,0,4.374-0.988,5.822-2.701c2.945-3.482,10.47-12.784,14.889-21.829l22.607,17.364
			c1.358,1.042,2.995,1.578,4.645,1.578c1.148,0,2.302-0.259,3.369-0.785c2.606-1.284,4.255-3.935,4.255-6.84V232.16
			c0-28.001-20.815-51.22-47.782-55.028c2.908-47.151,42.183-84.62,90.05-84.62c49.753,0,90.232,40.477,90.232,90.231v4.781
			c-14.778-6.382-41.389-14.69-66.036-5.872c-35.856,12.826-51.939,56.313-52.606,58.157c-1.244,3.439,0.129,7.276,3.271,9.146
			c1.326,0.788,26.327,15.423,54.381,15.423c7.638,0,15.503-1.085,23.177-3.831c16.792-6.006,29.246-18.736,37.812-30.764v244.093
			c0,0.752,0.113,1.476,0.316,2.162v28.336c0,4.212,3.413,7.625,7.625,7.625c4.212,0,7.625-3.413,7.625-7.625V396.613v-11.331
			c10.176,4.396,25.959,9.705,42.859,9.705c7.638,0,15.502-1.085,23.176-3.831c35.857-12.826,51.94-56.312,52.607-58.156
			c1.244-3.439-0.129-7.276-3.271-9.146c-1.686-1.003-41.703-24.423-77.559-11.594c-16.791,6.006-29.245,18.735-37.811,30.764
			v-7.789c0-49.753,40.477-90.231,90.231-90.231c47.869,0,87.143,37.469,90.051,84.617c-26.966,3.807-47.781,27.027-47.781,55.028
			v70.156c0,2.903,1.649,5.556,4.255,6.84c2.604,1.283,5.711,0.976,8.015-0.792l22.607-17.364
			c4.418,9.046,11.943,18.347,14.888,21.829c1.449,1.714,3.578,2.701,5.822,2.701s4.374-0.988,5.822-2.701
			c2.945-3.482,10.47-12.784,14.889-21.829l22.607,17.364c1.358,1.042,2.995,1.578,4.645,1.578c1.148,0,2.302-0.259,3.369-0.785
			c2.606-1.284,4.255-3.935,4.255-6.84v-70.156c0-28.116-20.987-51.406-48.115-55.07c-2.95-55.542-49.065-99.824-105.329-99.824
			c-38.198,0-71.72,20.412-90.231,50.899V105.481c0-49.753,40.477-90.231,90.231-90.231c47.869,0,87.143,37.469,90.051,84.617
			C417.098,103.674,396.284,126.894,396.284,154.894z M60.128,295.514c-3.965-5.494-7.142-10.818-8.327-14.025l8.329-6.398
			l8.329,6.397C67.269,284.693,64.091,290.016,60.128,295.514z M100.466,232.158v54.685l-35.693-27.414
			c-1.369-1.051-3.007-1.578-4.644-1.578c-1.637,0-3.276,0.527-4.644,1.578l-35.693,27.414v-54.685
			c0-22.242,18.095-40.338,40.336-40.338S100.466,209.916,100.466,232.158z M205.268,246.19c-21.944,7.85-47.432-1.955-58.728-7.303
			c5.315-11.293,18.745-34.995,40.778-42.877c16.622-5.945,35.275-1.761,48.254,2.942l-41.847,14.97
			c-3.964,1.418-6.03,5.783-4.61,9.747c1.115,3.116,4.048,5.059,7.179,5.059c0.853,0,1.719-0.144,2.568-0.447l41.89-14.985
			C233.723,225.154,221.969,240.215,205.268,246.19z M306.73,326.619c21.945-7.848,47.441,1.958,58.729,7.303
			c-5.315,11.293-18.747,34.995-40.779,42.877c-16.623,5.945-35.273,1.761-48.253-2.942l41.846-14.969
			c3.964-1.418,6.03-5.783,4.61-9.747s-5.783-6.03-9.747-4.61L271.292,359.5C278.343,347.63,290.109,332.565,306.73,326.619z
			 M451.866,448.007c-3.965-5.494-7.141-10.817-8.327-14.025l8.329-6.398l8.329,6.397
			C459.009,437.186,455.831,442.509,451.866,448.007z M492.206,384.651v54.685l-35.693-27.414c-1.369-1.051-3.007-1.578-4.644-1.578
			c-1.637,0-3.276,0.527-4.644,1.578l-35.692,27.414v-54.685c0-22.242,18.095-40.338,40.336-40.338S492.206,362.409,492.206,384.651
			z M451.866,218.25c-3.965-5.494-7.141-10.817-8.327-14.025l8.329-6.398l8.329,6.397
			C459.009,207.429,455.831,212.752,451.866,218.25z M451.868,114.558c22.242,0,40.338,18.096,40.338,40.338v54.685l-35.693-27.414
			c-1.369-1.051-3.007-1.578-4.644-1.578c-1.637,0-3.276,0.527-4.644,1.578l-35.692,27.414v-54.685
			C411.533,132.653,429.628,114.558,451.868,114.558z"/>
	</g>
</g>
</svg>