<?xml version="1.0" encoding="iso-8859-1"?>
<!-- Uploaded to: SVG Repo, www.svgrepo.com, Generator: SVG Repo Mixer Tools -->
<!DOCTYPE svg PUBLIC "-//W3C//DTD SVG 1.1//EN" "http://www.w3.org/Graphics/SVG/1.1/DTD/svg11.dtd">
<svg fill="#000000" version="1.1" id="Capa_1" xmlns="http://www.w3.org/2000/svg" xmlns:xlink="http://www.w3.org/1999/xlink" 
	 width="800px" height="800px" viewBox="0 0 146.738 146.738"
	 xml:space="preserve">
<g>
	<path d="M124.371,79.269c-2.077-0.59-4.292-0.311-6.186,0.749c-1.613,0.907-2.779,2.384-3.285,4.166
		c-0.496,1.788-0.274,3.671,0.633,5.284c0.506,0.896,1.545,1.255,2.489,0.986c0.042,0.005,0.089,0.037,0.126,0.042
		c1.461,0.216,2.821-0.791,3.032-2.257c0.211-1.393-0.723-2.674-2.077-2.975c0.205-0.622,0.616-1.165,1.191-1.466
		c0.896-0.507,1.93-0.622,2.911-0.343c0.986,0.274,1.793,0.912,2.288,1.804c0.696,1.233,0.876,2.663,0.496,4.039
		c-0.385,1.366-1.276,2.505-2.521,3.201c-3.454,1.93-7.837,0.706-9.782-2.747c-3.217-5.732,0.39-10.194,3.27-12.614
		c13.731-10.17,26.135-21.769,26.071-42.138C142.997,25,139,15.957,131.775,9.486c-7.984-7.127-19.19-10.47-30.76-9.233
		C92.304,1.196,84.478,5.486,78.993,12.31c-2.547,3.153-4.403,6.687-5.624,10.438c-1.216-3.726-3.085-7.285-5.621-10.438
		C62.255,5.467,54.438,1.18,45.726,0.252C34.153-0.984,22.944,2.359,14.963,9.486C7.739,15.946,3.741,25,3.71,35.001
		C3.649,55.365,16.042,66.969,29.779,77.139c2.884,2.42,6.491,6.882,3.274,12.614c-1.94,3.459-6.331,4.688-9.785,2.747
		c-1.237-0.696-2.133-1.835-2.513-3.201c-0.382-1.376-0.211-2.815,0.488-4.039c0.501-0.892,1.315-1.529,2.294-1.804
		c0.988-0.29,2.02-0.147,2.911,0.343c0.572,0.332,0.984,0.844,1.187,1.466c-1.355,0.301-2.283,1.582-2.078,2.975
		c0.216,1.461,1.577,2.473,3.04,2.257c0.042-0.005,0.082-0.037,0.124-0.042c0.944,0.284,1.988-0.09,2.489-0.986
		c0.912-1.624,1.134-3.486,0.633-5.284c-0.504-1.782-1.669-3.265-3.277-4.166c-1.901-1.05-4.095-1.35-6.188-0.749
		c-2.097,0.586-3.834,1.951-4.904,3.85c-1.263,2.236-1.577,4.842-0.881,7.314c0.691,2.484,2.312,4.546,4.559,5.801
		c1.777,1.002,3.705,1.466,5.611,1.466c4.026,0,7.941-2.114,10.054-5.858c1.571-2.811,2.046-5.69,1.603-8.49
		c2.813,2.004,5.59,4.008,8.198,6.086c5.919,4.703,10.86,8.743,14.673,12.672c0.032,0.479,0.192,0.954,0.543,1.323
		c7.657,8.179,8.696,16.664,2.927,23.926c-4.485,5.627-12.722,6.555-18.359,2.088c-4.324-3.454-5.044-9.771-1.598-14.091
		c1.258-1.582,3.062-2.584,5.076-2.811c1.988-0.221,3.992,0.338,5.579,1.604c1.113,0.886,1.743,2.125,1.975,3.422
		c-0.448-0.131-0.901-0.279-1.397-0.279c-2.415,0-4.369,1.951-4.369,4.372c0,2.415,1.954,4.377,4.369,4.377
		c0.691,0,1.329-0.195,1.912-0.485c0.669,0.031,1.345-0.211,1.793-0.791c3.417-4.293,2.7-10.568-1.587-13.99
		c-2.489-1.978-5.606-2.874-8.759-2.521c-3.159,0.348-5.988,1.919-7.971,4.397c-4.931,6.186-3.905,15.214,2.283,20.16
		c3.198,2.548,7.017,3.766,10.806,3.766c4.828,0,9.563-2.062,12.967-5.906c-1.534,2.953-3.678,5.548-6.491,7.562
		c-4.91,3.507-11.13,4.898-17.086,3.839c-9.413-1.683-15.699-10.727-14.014-20.134c0.211-1.192-0.567-2.311-1.743-2.521
		c-1.166-0.231-2.294,0.57-2.505,1.751c-2.107,11.771,5.745,23.056,17.5,25.154c1.561,0.285,3.132,0.417,4.704,0.417
		c5.574,0,11.092-1.725,15.654-4.994c5.018-3.586,8.383-8.706,9.861-14.518c1.479,5.795,4.839,10.916,9.859,14.518
		c4.566,3.259,10.082,4.994,15.651,4.994c1.571,0,3.148-0.132,4.704-0.417c11.76-2.114,19.606-13.389,17.502-25.154
		c-0.211-1.181-1.365-1.993-2.505-1.751c-1.187,0.211-1.956,1.329-1.745,2.521c1.682,9.407-4.609,18.457-14.012,20.134
		c-5.954,1.06-12.177-0.327-17.086-3.839c-2.816-2.015-4.957-4.609-6.491-7.562c3.401,3.845,8.137,5.906,12.962,5.906
		c3.797,0,7.614-1.239,10.811-3.771c6.19-4.941,7.203-13.985,2.288-20.145c-1.982-2.489-4.819-4.061-7.973-4.408
		c-3.154-0.354-6.266,0.543-8.765,2.525c-4.282,3.417-5.005,9.692-1.582,13.985c0.442,0.564,1.118,0.807,1.793,0.791
		c0.58,0.29,1.218,0.485,1.914,0.485c2.41,0,4.366-1.946,4.366-4.377c0-2.41-1.951-4.372-4.366-4.372
		c-0.501,0-0.965,0.132-1.408,0.279c0.232-1.286,0.865-2.536,1.983-3.417c1.582-1.266,3.575-1.824,5.579-1.608
		c2.015,0.227,3.817,1.229,5.078,2.811c3.443,4.33,2.721,10.647-1.604,14.08c-5.643,4.482-13.874,3.544-18.356-2.082
		c-5.77-7.257-4.735-15.747,2.927-23.932c0.348-0.363,0.512-0.838,0.543-1.328c3.818-3.924,8.754-7.963,14.682-12.656
		c2.604-2.084,5.379-4.082,8.194-6.097c-0.442,2.816,0.037,5.706,1.608,8.495c2.12,3.75,6.028,5.859,10.052,5.859
		c1.909,0,3.834-0.475,5.616-1.466c2.241-1.25,3.86-3.312,4.551-5.796c0.696-2.479,0.385-5.073-0.875-7.319
		C128.21,81.22,126.476,79.855,124.371,79.269z M106.331,79.475c0.521-3.169-0.153-6.386-2.146-9.379
		c-3.522-5.281-10.668-6.729-15.926-3.23c-4.419,2.932-5.616,8.907-2.679,13.352c1.202,1.804,3.032,3.038,5.162,3.486
		c2.115,0.427,4.293,0.016,6.112-1.208c3.175-2.125,4.034-6.423,1.925-9.603c-0.506-0.762-1.402-1.097-2.226-0.941
		c-0.084-0.011-0.152-0.053-0.237-0.063c-1.477-0.119-2.769,0.96-2.895,2.429c-0.116,1.365,0.822,2.547,2.141,2.815
		c-0.11,0.707-0.485,1.351-1.118,1.762c-1.734,1.171-4.113,0.675-5.278-1.055c-1.624-2.447-0.965-5.74,1.461-7.367
		c3.285-2.159,7.752-1.263,9.945,2.025c3.897,5.864-0.132,10.895-2.885,13.373c-0.011,0.011-0.011,0.021-0.021,0.037
		c-0.079,0.058-0.158,0.11-0.228,0.163c-11.095,8.807-21.03,16.712-24.064,27.454c-3.041-10.742-12.971-18.647-24.063-27.454
		c-0.076-0.062-0.155-0.11-0.227-0.163c-0.011-0.016-0.011-0.026-0.021-0.037c-2.75-2.479-6.776-7.509-2.884-13.373
		c2.193-3.288,6.652-4.185,9.938-2.025c2.429,1.627,3.088,4.92,1.469,7.362c-1.173,1.734-3.539,2.23-5.276,1.07
		c-0.633-0.412-1.004-1.065-1.118-1.772c1.31-0.274,2.251-1.455,2.144-2.815c-0.129-1.469-1.421-2.568-2.895-2.434
		c-0.087,0.01-0.156,0.053-0.243,0.081c-0.831-0.168-1.716,0.161-2.22,0.923c-2.106,3.18-1.242,7.494,1.928,9.604
		c1.803,1.218,3.971,1.64,6.109,1.207c2.127-0.432,3.958-1.682,5.168-3.485c2.937-4.419,1.737-10.42-2.679-13.353
		c-5.266-3.499-12.403-2.046-15.926,3.23c-1.994,3.008-2.673,6.209-2.149,9.379c-0.52-0.364-1.025-0.744-1.545-1.113
		c-2.247-1.598-4.499-3.211-6.711-4.849c-0.129-0.113-0.227-0.222-0.363-0.33c-0.059-0.047-0.135-0.058-0.198-0.107
		c-12.551-9.39-23.63-20.147-23.577-38.085c0.026-8.754,3.509-16.664,9.811-22.31c7.069-6.312,17.065-9.302,27.417-8.163
		c7.565,0.82,14.359,4.551,19.127,10.471c4.396,5.476,6.465,12.236,6.136,19.187c-0.715,4.195-2.637,7.57-5.683,9.746
		c-3.659,2.592-8.801,3.462-14.114,2.333c-3.414-0.735-6.336-2.731-8.237-5.653c-1.898-2.932-2.547-6.416-1.825-9.83
		c0.562-2.618,2.102-4.865,4.343-6.328c2.241-1.464,4.907-1.938,7.538-1.393c1.97,0.398,3.665,1.559,4.768,3.262
		c1.107,1.695,1.484,3.721,1.065,5.717c-0.282,1.318-1.06,2.42-2.107,3.24c-0.448-1.959-2.138-3.462-4.239-3.428
		c-2.413,0.032-4.34,2.015-4.304,4.422c0.016,1.36,0.691,2.516,1.675,3.301c0.298,0.507,0.777,0.902,1.397,1.026
		c2.592,0.562,5.239,0.073,7.475-1.369c2.241-1.46,3.773-3.696,4.33-6.307c0.664-3.114,0.071-6.307-1.675-8.968
		c-1.732-2.657-4.396-4.482-7.493-5.125c-3.731-0.789-7.573-0.092-10.79,2.004c-3.209,2.091-5.416,5.287-6.209,9.049
		c-0.968,4.543-0.108,9.187,2.423,13.081c2.534,3.897,6.421,6.565,10.964,7.533c1.824,0.382,3.644,0.572,5.421,0.572
		c3.127,0,6.085-0.627,8.735-1.777c-0.562,0.562-1.078,1.166-1.706,1.68c-4.653,3.726-10.486,5.432-16.432,4.801
		c-4.633-0.52-8.791-2.797-11.712-6.418c-2.921-3.639-4.256-8.189-3.747-12.825c0.129-1.187-0.73-2.251-1.912-2.365
		c-1.199-0.15-2.251,0.73-2.381,1.911c-0.633,5.78,1.031,11.459,4.675,16.002c3.646,4.535,8.836,7.37,14.613,7.997
		c7.095,0.804,14.051-1.247,19.607-5.724c3.931-3.153,6.763-7.307,8.393-11.939c1.632,4.633,4.459,8.786,8.393,11.939
		c5.559,4.453,12.524,6.528,19.606,5.724c5.78-0.627,10.969-3.478,14.613-7.997c3.644-4.538,5.305-10.223,4.677-16.002
		c-0.126-1.187-1.144-2.062-2.383-1.911c-1.182,0.113-2.036,1.194-1.909,2.365c0.501,4.635-0.828,9.186-3.75,12.825
		c-2.921,3.647-7.082,5.925-11.712,6.418c-5.948,0.651-11.775-1.055-16.432-4.801c-0.633-0.514-1.145-1.107-1.704-1.68
		c2.653,1.15,5.606,1.777,8.738,1.777c1.772,0,3.597-0.189,5.421-0.572c4.541-0.968,8.438-3.636,10.959-7.533
		c2.531-3.894,3.391-8.538,2.426-13.081c-0.791-3.747-3.006-6.958-6.213-9.049c-3.206-2.096-7.05-2.803-10.778-2.004
		c-3.096,0.643-5.759,2.468-7.504,5.125c-1.735,2.661-2.337,5.854-1.672,8.968c0.554,2.61,2.088,4.846,4.329,6.307
		c2.23,1.442,4.878,1.915,7.473,1.369c0.622-0.124,1.103-0.536,1.402-1.026c0.986-0.791,1.661-1.94,1.678-3.301
		c0.031-2.407-1.898-4.39-4.309-4.422c-2.104-0.034-3.786,1.463-4.234,3.428c-1.05-0.804-1.83-1.912-2.109-3.24
		c-0.417-1.98-0.048-4.016,1.06-5.717c1.103-1.685,2.806-2.848,4.783-3.262c2.604-0.572,5.289-0.076,7.535,1.393
		c2.241,1.463,3.787,3.71,4.341,6.328c0.722,3.414,0.084,6.897-1.825,9.83c-1.903,2.921-4.825,4.917-8.227,5.653
		c-5.311,1.129-10.462,0.274-14.122-2.333c-3.043-2.149-4.968-5.535-5.674-9.746c-0.338-6.951,1.729-13.711,6.127-19.187
		c4.772-5.941,11.565-9.65,19.133-10.471c10.336-1.134,20.35,1.84,27.411,8.163c6.307,5.646,9.782,13.556,9.809,22.31
		c0.058,17.922-11.027,28.685-23.578,38.098c-0.068,0.037-0.132,0.048-0.194,0.095c-0.132,0.108-0.232,0.217-0.359,0.33
		c-2.215,1.653-4.466,3.262-6.713,4.849C107.354,78.732,106.843,79.106,106.331,79.475z"/>
</g>
</svg>